<?xml version="1.0" standalone="no"?>
<!DOCTYPE svg PUBLIC "-//W3C//DTD SVG 20010904//EN"
 "http://www.w3.org/TR/2001/REC-SVG-20010904/DTD/svg10.dtd">
<svg version="1.0" xmlns="http://www.w3.org/2000/svg"
 width="2000.000000pt" height="2000.000000pt" viewBox="0 0 2000.000000 2000.000000"
 preserveAspectRatio="xMidYMid meet">
<metadata>
Created by potrace 1.11, written by Peter Selinger 2001-2013
</metadata>
<g transform="translate(0.000000,2000.000000) scale(0.100000,-0.100000)"
fill="#000000" stroke="none">
<path d="M2587 19984 c-1 -1 -63 -4 -137 -8 -74 -3 -151 -8 -170 -11 -65 -9
-105 -15 -155 -25 -27 -5 -62 -11 -76 -14 -50 -8 -196 -49 -294 -83 -251 -86
-486 -209 -696 -364 -79 -59 -96 -73 -204 -169 -211 -188 -404 -440 -550 -715
-100 -190 -209 -503 -241 -695 -3 -14 -7 -36 -9 -50 -3 -14 -7 -47 -11 -74 -3
-28 -7 -52 -9 -56 -2 -3 -6 -62 -10 -130 -9 -157 -10 -15088 -1 -15190 4 -41
9 -91 12 -110 2 -19 6 -53 9 -75 10 -101 65 -329 110 -460 99 -286 278 -603
465 -820 269 -313 566 -535 950 -708 112 -51 400 -140 525 -162 120 -21 224
-35 310 -41 110 -7 15115 -8 15190 0 33 3 87 8 120 11 33 3 67 8 75 10 8 2 33
7 55 10 50 7 59 8 165 34 405 95 793 298 1105 575 111 98 159 149 295 306 43
49 138 186 196 280 193 316 312 662 359 1040 2 14 7 68 10 120 8 113 9 15096
1 15190 -3 36 -9 88 -12 115 -4 28 -8 61 -9 75 -1 14 -5 39 -8 55 -4 17 -9 44
-12 62 -15 94 -94 360 -135 458 -173 411 -390 716 -698 982 -37 32 -69 60 -72
63 -45 45 -256 186 -377 253 -337 185 -693 289 -1073 313 -81 5 -14986 13
-14993 8z m15103 -267 c19 -4 51 -9 70 -12 285 -40 619 -162 866 -316 191
-118 432 -327 560 -484 27 -33 55 -66 62 -73 7 -8 50 -71 96 -140 75 -114 143
-237 190 -344 9 -21 22 -53 30 -70 29 -67 95 -277 109 -348 3 -14 12 -60 20
-102 9 -43 20 -112 24 -155 10 -102 10 -15244 0 -15347 -5 -44 -10 -82 -12
-85 -1 -3 -6 -26 -9 -51 -10 -77 -63 -281 -96 -370 -18 -47 -37 -98 -43 -115
-6 -16 -39 -87 -73 -156 -252 -503 -669 -889 -1198 -1108 -164 -68 -383 -128
-536 -147 -25 -3 -72 -9 -105 -14 -72 -10 -15259 -8 -15325 3 -25 4 -63 9 -85
13 -236 34 -528 132 -750 252 -98 53 -273 168 -327 214 -14 13 -46 39 -70 58
-68 54 -237 227 -307 315 -236 293 -419 693 -475 1035 -3 19 -8 49 -10 65 -3
17 -9 53 -13 80 -10 70 -14 15245 -3 15325 22 166 21 162 35 235 11 57 61 240
83 305 66 188 203 451 305 585 197 260 420 468 655 614 84 52 292 161 308 161
5 0 23 7 39 16 71 37 329 114 465 138 19 3 46 8 60 11 13 3 58 7 100 11 41 3
77 7 79 10 7 7 15244 -2 15281 -9z"/>
<path d="M4089 18307 c-2 -3 -38 -7 -79 -11 -145 -12 -375 -58 -480 -96 -14
-5 -65 -23 -115 -41 -391 -138 -747 -382 -1036 -710 -254 -287 -459 -682 -545
-1048 -34 -147 -34 -148 -40 -194 -3 -23 -7 -48 -10 -56 -25 -75 -25 -627 0
-702 3 -8 7 -32 10 -54 20 -152 86 -385 163 -570 95 -229 254 -485 423 -679
81 -95 280 -280 364 -341 16 -11 40 -29 54 -40 122 -93 414 -253 558 -305 161
-59 208 -73 319 -100 138 -33 172 -40 295 -55 117 -16 408 -22 500 -11 25 3
71 8 104 11 69 8 127 17 246 41 33 7 198 52 230 64 230 81 341 132 535 247
212 125 458 340 629 547 62 76 206 279 206 292 0 3 13 24 28 47 86 129 224
472 267 664 9 41 44 220 49 253 25 160 25 545 1 672 -3 12 -7 40 -11 63 -42
291 -185 678 -339 916 -25 38 -45 72 -45 75 0 3 -5 10 -10 17 -6 7 -33 44 -61
82 -339 464 -852 810 -1407 949 -83 21 -128 30 -247 52 -83 14 -543 32 -556
21z"/>
<path d="M9779 18306 c-2 -2 -35 -7 -74 -10 -626 -58 -1271 -411 -1676 -916
-152 -191 -297 -435 -369 -620 -11 -30 -25 -64 -30 -75 -36 -80 -114 -373
-126 -473 -3 -31 -8 -60 -10 -63 -18 -30 -26 -478 -11 -614 38 -358 150 -695
337 -1015 175 -300 434 -579 729 -785 128 -89 286 -176 471 -258 100 -44 353
-121 465 -142 192 -34 323 -47 496 -47 108 0 257 8 310 17 13 2 56 9 94 15
422 66 825 246 1180 528 101 80 320 303 395 402 286 377 465 805 514 1233 4
26 9 67 12 91 13 101 6 437 -10 536 -3 14 -7 48 -11 75 -9 75 -42 218 -71 314
-14 47 -28 93 -29 103 -12 63 -135 327 -224 483 -127 221 -363 494 -577 667
-174 140 -433 294 -619 368 -132 53 -337 118 -430 136 -47 9 -193 34 -235 39
-51 7 -495 17 -501 11z"/>
<path d="M15500 18307 c-3 -2 -40 -7 -83 -11 -43 -4 -113 -13 -155 -21 -42 -8
-89 -16 -103 -19 -133 -22 -388 -111 -561 -195 -478 -232 -861 -598 -1118
-1070 -34 -62 -68 -130 -75 -151 -7 -20 -18 -46 -24 -56 -16 -28 -66 -161 -86
-229 -9 -33 -23 -80 -30 -105 -15 -51 -42 -170 -51 -225 -3 -21 -7 -47 -9 -58
-13 -67 -20 -187 -20 -362 0 -226 6 -303 35 -460 5 -27 12 -61 14 -75 3 -14
12 -52 21 -85 9 -33 18 -68 20 -77 7 -31 77 -232 97 -278 152 -343 313 -579
561 -823 330 -324 728 -544 1177 -651 109 -26 131 -31 209 -42 25 -4 55 -8 66
-10 31 -6 222 -17 300 -17 563 -3 1133 196 1578 552 143 114 329 307 448 466
177 235 340 578 415 870 4 17 8 32 9 35 5 19 16 71 20 100 3 19 8 42 10 50 2
8 7 35 10 60 3 25 8 56 10 70 23 128 22 494 0 620 -3 14 -7 43 -10 65 -2 22
-7 51 -10 65 -3 14 -8 39 -10 55 -3 17 -12 57 -20 90 -9 33 -17 69 -20 79 -26
109 -104 311 -177 456 -310 622 -855 1083 -1520 1284 -115 35 -270 69 -365 81
-26 4 -59 9 -73 11 -34 7 -474 17 -480 11z"/>
<path d="M4217 6714 c-1 -1 -51 -4 -112 -7 -60 -4 -126 -9 -145 -12 -19 -3
-66 -10 -105 -16 -284 -43 -619 -168 -880 -327 -442 -268 -782 -653 -995
-1124 -35 -76 -116 -296 -125 -338 -2 -8 -12 -51 -23 -95 -11 -44 -24 -100
-28 -125 -4 -25 -8 -47 -9 -50 -1 -3 -5 -32 -9 -65 -4 -32 -10 -68 -13 -80 -9
-38 -11 -430 -2 -510 35 -325 109 -583 249 -870 243 -495 627 -885 1115 -1133
180 -91 456 -190 600 -216 17 -3 84 -15 150 -26 135 -24 513 -36 640 -20 436
55 798 185 1129 404 169 113 245 175 397 326 364 363 610 835 694 1330 32 189
38 249 39 434 1 151 -19 382 -39 456 -2 8 -7 29 -10 45 -31 178 -105 401 -196
592 -309 644 -884 1131 -1568 1328 -64 18 -129 35 -146 38 -16 3 -66 12 -110
21 -104 19 -152 25 -250 32 -91 6 -244 11 -248 8z"/>
<path d="M9907 6714 c-1 -1 -53 -4 -115 -8 -63 -3 -117 -8 -120 -10 -4 -2 -29
-7 -57 -10 -27 -3 -93 -15 -145 -26 -52 -12 -106 -24 -120 -27 -35 -7 -198
-59 -251 -79 -257 -98 -517 -249 -735 -429 -54 -45 -221 -209 -274 -270 -144
-165 -286 -381 -378 -577 -40 -86 -105 -243 -103 -253 0 -3 -8 -29 -19 -57
-10 -29 -29 -91 -40 -138 -24 -94 -25 -100 -41 -185 -5 -33 -12 -71 -15 -85
-19 -111 -26 -489 -12 -620 52 -453 207 -854 471 -1220 64 -88 82 -110 182
-219 82 -91 108 -116 197 -194 332 -288 737 -486 1168 -571 14 -3 36 -7 50
-10 14 -3 48 -8 75 -11 28 -3 77 -10 110 -14 77 -11 410 -11 495 0 36 4 88 11
115 14 173 20 452 100 647 186 411 180 784 485 1045 854 106 151 208 339 278
515 37 93 101 289 110 339 3 14 7 36 10 49 3 12 7 32 10 45 14 61 36 218 41
290 11 152 8 391 -6 485 -4 26 -11 71 -14 100 -3 30 -11 73 -16 95 -5 23 -11
53 -13 67 -15 81 -71 262 -119 385 -92 233 -243 492 -393 672 -281 337 -635
592 -1045 751 -71 28 -234 80 -273 88 -10 2 -26 5 -35 8 -73 22 -282 55 -397
62 -92 6 -264 11 -268 8z"/>
<path d="M15657 6714 c-1 -1 -58 -4 -127 -8 -157 -8 -188 -12 -330 -42 -161
-34 -233 -54 -374 -103 -228 -80 -549 -265 -736 -422 -158 -134 -314 -300
-429 -459 -33 -47 -65 -89 -69 -95 -26 -35 -127 -215 -165 -295 -81 -170 -172
-433 -191 -552 -3 -18 -10 -55 -15 -83 -13 -61 -19 -102 -26 -180 -4 -33 -8
-73 -11 -90 -10 -77 -4 -382 11 -480 3 -16 7 -48 10 -70 5 -33 23 -123 40
-205 35 -167 130 -424 218 -590 57 -109 184 -308 233 -367 11 -12 32 -39 49
-60 210 -265 548 -532 855 -675 278 -130 499 -194 815 -236 68 -9 453 -9 540
0 404 42 821 196 1155 427 346 239 631 562 813 922 62 122 75 150 118 259 31
79 95 297 104 350 3 25 10 59 15 75 5 17 12 59 15 95 4 36 9 68 11 71 6 10 18
208 17 304 0 91 -12 295 -18 305 -1 3 -6 32 -9 65 -14 123 -96 427 -155 570
-65 160 -241 471 -323 570 -130 158 -190 225 -271 302 -212 202 -449 361 -717
480 -218 96 -448 163 -650 189 -25 3 -56 8 -70 10 -38 7 -327 23 -333 18z"/>
</g>
</svg>
